# xmcd
#
# Track frame offsets: 
#        150
#        17761
#        39351
#        61436
#        77731
#        100629
#        122441
#        139801
#        161876
#        183889
#        204981
#        220929
#        241981
#
# Disc length: 3442 seconds
#
# Revision: 1
# Processed by: cddbd v1.5.2PL0 Copyright (c) Steve Scherf et al.
# Submitted via: ExactAudioCopy v1.3
#
DISCID=a80d700d
DTITLE=Bleeding Harp - Gotta Have
DYEAR=2004
DGENRE=Rockin' Blues
TTITLE0=Gotta Have
TTITLE1=Loaded Gun
TTITLE2=Big Legged Woman
TTITLE3=Sounds Funny
TTITLE4=Love by Telephone
TTITLE5=Ain`t Dead Yet
TTITLE6=Don`t Ask Me
TTITLE7=Hard Way
TTITLE8=Creeper Returns
TTITLE9=Wrong Side of the Tracks
TTITLE10=Lay it on the Line
TTITLE11=Drive Me Crazy
TTITLE12=Cnever Gonna Geddit
EXTD=
EXTT0=
EXTT1=
EXTT2=
EXTT3=
EXTT4=
EXTT5=
EXTT6=
EXTT7=
EXTT8=
EXTT9=
EXTT10=
EXTT11=
EXTT12=
PLAYORDER=
